#!OML:ASF C:\Vicon Data\Big\jianyuan-12\jianyuan\Session 1\Capture.male.ASF
:FULLY-SPECIFIED
:DEGREES
42
root -8.398598 17.170194 -19.951088 6.487654 7.388930 1.973086
lowerback -12.421869 -2.292128 -5.481813 
upperback 1.480331 -2.226654 0.045201 
thorax 8.802308 -1.349161 2.697545 
lowerneck -4.733913 -5.348286 -5.868861 
upperneck 8.688747 -7.568380 8.091322 
head 3.895257 -3.609873 3.031816 
rclavicle 0.000000 0.000000 
rhumerus -40.348541 -28.313606 -76.864440 
rradius 35.092432 
rwrist 35.034727 
rhand -18.604961 -5.275192 
rfingers 0.000000 
rthumb 7.686447 -35.115461 
lclavicle 0.000000 0.000000 
lhumerus -31.319363 28.537273 77.574518 
lradius 29.540772 
lwrist -48.397357 
lhand -8.882669 3.924977 
lfingers 0.000000 
lthumb 17.059368 33.195911 
rfemur -25.512456 1.441438 18.803812 
rtibia 32.903601 
rfoot -20.189394 -4.574551 
rtoes -0.933044 
lfemur -8.130903 4.746614 -18.653994 
ltibia 55.341015 
lfoot -1.455751 7.410847 
ltoes -22.086313 
43
root -8.411218 17.171172 -19.871023 6.324587 7.534864 1.904418
lowerback -12.246154 -2.265625 -5.443567 
upperback 1.568975 -2.205016 0.043489 
thorax 8.794050 -1.338229 2.681924 
lowerneck -4.798608 -5.323315 -5.979357 
upperneck 8.623683 -7.533463 8.249798 
head 3.894110 -3.588123 3.098986 
rclavicle 0.000000 0.000000 
rhumerus -39.815307 -27.896426 -77.315588 
rradius 35.318753 
rwrist 33.925225 
rhand -18.326234 -5.079580 
rfingers 0.000000 
rthumb 7.955458 -34.909866 
lclavicle 0.000000 0.000000 
lhumerus -31.611257 28.804985 77.359611 
lradius 29.438802 
lwrist -48.950654 
lhand -8.976759 3.991731 
lfingers 0.000000 
lthumb 16.968769 33.270479 
rfemur -24.982065 1.538748 18.962878 
rtibia 32.877619 
rfoot -20.552150 -4.644381 
rtoes -0.679349 
lfemur -8.879541 5.008644 -18.478116 
ltibia 56.600475 
lfoot -2.272335 7.580163 
ltoes -22.441202 
44
root -8.422969 17.172903 -19.789426 6.265038 7.608797 1.859005
lowerback -12.201748 -2.193535 -5.430009 
upperback 1.621363 -2.110578 0.026848 
thorax 8.815666 -1.292904 2.675969 
lowerneck -4.818151 -5.371990 -6.147904 
upperneck 8.620690 -7.612308 8.507496 
head 3.918408 -3.621256 3.199444 
rclavicle 0.000000 0.000000 
rhumerus -39.421859 -27.455657 -77.736127 
rradius 35.537575 
rwrist 33.633805 
rhand -18.540035 -5.106312 
rfingers 0.000000 
rthumb 7.749130 -34.944297 
lclavicle 0.000000 0.000000 
lhumerus -31.842343 28.785568 77.288345 
lradius 29.394572 
lwrist -48.797193 
lhand -8.979109 4.140644 
lfingers 0.000000 
lthumb 16.966540 33.419626 
rfemur -24.583357 1.534572 19.113952 
rtibia 32.856909 
rfoot -20.866766 -4.622361 
rtoes -0.760492 
lfemur -9.749637 5.322294 -18.373749 
ltibia 57.790458 
lfoot -2.981058 7.736936 
ltoes -22.884571 
45
root -8.433707 17.174484 -19.710914 6.219347 7.674669 1.780736
lowerback -12.129213 -2.115357 -5.367479 
upperback 1.663166 -2.017093 0.004993 
thorax 8.807227 -1.244647 2.637477 
lowerneck -4.886767 -5.445691 -6.108339 
upperneck 8.643308 -7.717280 8.537682 
head 3.944382 -3.668490 3.193545 
rclavicle 0.000000 0.000000 
rhumerus -38.988583 -27.047347 -78.136981 
rradius 35.773147 
rwrist 33.002833 
rhand -18.497415 -5.016428 
rfingers 0.000000 
rthumb 7.790275 -34.852941 
lclavicle 0.000000 0.000000 
lhumerus -32.022950 28.860770 77.110990 
lradius 29.233215 
lwrist -48.766812 
lhand -9.040196 4.206443 
lfingers 0.000000 
lthumb 16.907737 33.490467 
rfemur -24.217076 1.536203 19.301839 
rtibia 32.830571 
rfoot -21.154520 -4.600663 
rtoes -0.793068 
lfemur -10.610703 5.495888 -18.276352 
ltibia 58.901952 
lfoot -3.739679 7.927563 
ltoes -22.293537 
46
root -8.444551 17.176414 -19.632991 6.094578 7.757583 1.759202
lowerback -11.986657 -2.055568 -5.396572 
upperback 1.735232 -1.939173 0.001405 
thorax 8.797600 -1.209538 2.668093 
lowerneck -4.808230 -5.442206 -6.183674 
upperneck 8.442005 -7.709021 8.683056 
head 3.878483 -3.664638 3.254501 
rclavicle 0.000000 0.000000 
rhumerus -38.661697 -26.744486 -78.439466 
rradius 36.027509 
rwrist 33.166087 
rhand -18.741614 -5.242253 
rfingers 0.000000 
rthumb 7.554545 -35.087295 
lclavicle 0.000000 0.000000 
lhumerus -32.290269 29.172567 76.926842 
lradius 29.107815 
lwrist -49.326710 
lhand -9.193440 4.323817 
lfingers 0.000000 
lthumb 16.760200 33.620386 
rfemur -23.715829 1.580888 19.429549 
rtibia 32.755262 
rfoot -21.452979 -4.651894 
rtoes -1.052177 
lfemur -11.380392 5.648407 -18.233611 
ltibia 59.912297 
lfoot -4.300659 8.097844 
ltoes -22.680125 
47
root -8.455772 17.176984 -19.555291 5.946264 7.766998 1.678247
lowerback -11.823804 -1.969567 -5.360823 
upperback 1.791173 -1.838055 0.001407 
thorax 8.753867 -1.159038 2.671211 
lowerneck -4.681882 -5.481481 -6.198386 
upperneck 8.277002 -7.761605 8.755015 
head 3.815134 -3.693241 3.280393 
rclavicle 0.000000 0.000000 
rhumerus -38.287008 -26.371655 -78.753795 
rradius 36.251866 
rwrist 32.964632 
rhand -18.678561 -4.974533 
rfingers 0.000000 
rthumb 7.615377 -34.817349 
lclavicle 0.000000 0.000000 
lhumerus -32.595916 29.304752 76.756101 
lradius 29.060125 
lwrist -49.326531 
lhand -9.265490 4.354626 
lfingers 0.000000 
lthumb 16.690872 33.657080 
rfemur -23.209467 1.662551 19.623421 
rtibia 32.688237 
rfoot -21.789074 -4.656442 
rtoes -1.050926 
lfemur -12.096039 5.888687 -18.131977 
ltibia 60.828305 
lfoot -4.838663 8.201222 
ltoes -21.769253 
48
root -8.467422 17.178515 -19.479859 5.846905 7.844077 1.684488
lowerback -11.663354 -1.897735 -5.427516 
upperback 1.835994 -1.739344 -0.020415 
thorax 8.702808 -1.113912 2.707862 
lowerneck -4.584218 -5.577802 -6.163786 
upperneck 8.139375 -7.887877 8.751153 
head 3.765693 -3.758602 3.269662 
rclavicle 0.000000 0.000000 
rhumerus -37.895852 -25.918847 -79.100201 
rradius 36.488440 
rwrist 32.496812 
rhand -18.723555 -5.153316 
rfingers 0.000000 
rthumb 7.571996 -34.997774 
lclavicle 0.000000 0.000000 
lhumerus -32.859726 29.542478 76.551831 
lradius 28.953642 
lwrist -49.375169 
lhand -9.297504 4.266473 
lfingers 0.000000 
lthumb 16.660053 33.571535 
rfemur -22.744165 1.695890 19.726664 
rtibia 32.608043 
rfoot -22.165924 -4.659323 
rtoes -0.412724 
lfemur -12.853493 6.011481 -18.135702 
ltibia 61.664934 
lfoot -5.357922 8.239831 
ltoes -21.710033 
49
root -8.477852 17.180324 -19.402674 5.791245 7.845417 1.652263
lowerback -11.624360 -1.810959 -5.399598 
upperback 1.904421 -1.624879 -0.058668 
thorax 8.742035 -1.058306 2.673358 
lowerneck -4.579821 -5.573850 -6.106644 
upperneck 8.028356 -7.885101 8.816289 
head 3.731765 -3.754417 3.281661 
rclavicle 0.000000 0.000000 
rhumerus -37.415602 -25.549912 -79.525237 
rradius 36.851092 
rwrist 31.588354 
rhand -18.440361 -5.203519 
rfingers 0.000000 
rthumb 7.845302 -35.037932 
lclavicle 0.000000 0.000000 
lhumerus -33.160556 29.829239 76.282317 
lradius 28.905110 
lwrist -49.705308 
lhand -9.249852 4.212253 
lfingers 0.000000 
lthumb 16.705907 33.513422 
rfemur -22.341380 1.752318 19.860034 
rtibia 32.548684 
rfoot -22.478581 -4.649329 
rtoes -0.358058 
lfemur -13.655846 6.151165 -18.140041 
ltibia 62.405075 
lfoot -5.887303 8.404949 
ltoes -21.595563 
